HIERARCHY
ROOT hip
{
	OFFSET 0.000000 0.000000 0.000000 
	CHANNELS 6 Xposition Yposition Zposition Xrotation Zrotation Yrotation
	JOINT abdomen
	{
		OFFSET 0.000000 3.402643 0.000000 
		CHANNELS 3 Xrotation Zrotation Yrotation
		JOINT chest
		{
			OFFSET 0.000000 8.438565 -0.680529 
			CHANNELS 3 Xrotation Zrotation Yrotation
			JOINT neck
			{
				OFFSET 0.000000 10.207942 -0.272212 
				CHANNELS 3 Xrotation Zrotation Yrotation
				JOINT head
				{
					OFFSET 0.000000 3.130431 0.000000 
					CHANNELS 3 Xrotation Zrotation Yrotation
					End Site
					{
						OFFSET 0.000000 3.130435 0.000000 
					}
				}
			}
			JOINT lCollar
			{
				OFFSET 3.470700 6.669187 -0.816635 
				CHANNELS 3 Yrotation Zrotation Xrotation
				JOINT lShldr
				{
					OFFSET 3.198488 0.000000 0.000000 
					CHANNELS 3 Zrotation Yrotation Xrotation
					JOINT lForeArm
					{
						OFFSET 10.139888 0.000000 0.000000 
						CHANNELS 3 Yrotation Zrotation Xrotation
						JOINT lHand
						{
							OFFSET 8.370511 0.000000 0.000000 
							CHANNELS 3 Zrotation Yrotation Xrotation
							End Site
							{
								OFFSET 4.083176 0.000000 0.000000 
							}
						}
					}
				}
			}
			JOINT rCollar
			{
				OFFSET -3.470700 6.669187 -0.816635 
				CHANNELS 3 Yrotation Zrotation Xrotation
				JOINT rShldr
				{
					OFFSET -3.198488 0.000000 0.000000 
					CHANNELS 3 Zrotation Yrotation Xrotation
					JOINT rForeArm
					{
						OFFSET -10.139888 0.000000 0.000000 
						CHANNELS 3 Yrotation Zrotation Xrotation
						JOINT rHand
						{
							OFFSET -8.370511 0.000000 0.000000 
							CHANNELS 3 Zrotation Yrotation Xrotation
							End Site
							{
								OFFSET -4.083176 0.000000 0.000000 
							}
						}
					}
				}
			}
		}
	}
	JOINT lThigh
	{
		OFFSET 5.308129 -1.633274 1.361059 
		CHANNELS 3 Xrotation Zrotation Yrotation
		JOINT lShin
		{
			OFFSET -2.041588 -20.007561 0.000000 
			CHANNELS 3 Xrotation Zrotation Yrotation
			JOINT lFoot
			{
				OFFSET 0.000000 -19.190928 -1.224953 
				CHANNELS 3 Xrotation Yrotation Zrotation
				End Site
				{
					OFFSET 0.000000 -2.449906 4.627600 
				}
			}
		}
	}
	JOINT rThigh
	{
		OFFSET -5.308129 -1.633274 1.361059 
		CHANNELS 3 Xrotation Zrotation Yrotation
		JOINT rShin
		{
			OFFSET 2.041588 -20.007561 0.000000 
			CHANNELS 3 Xrotation Zrotation Yrotation
			JOINT rFoot
			{
				OFFSET 0.000000 -19.190928 -1.224953 
				CHANNELS 3 Xrotation Yrotation Zrotation
				End Site
				{
					OFFSET 0.000000 -2.449906 4.627600 
				}
			}
		}
	}
}
MOTION
Frames: 6
Frame Time: 0.016667
1.019089 46.826405 7.816217 7.816995 -3.716510 16.069519 0.000000 0.000000 0.000000 -19.725580 -1.792986 -3.771655 -11.172416 3.553910 -9.530184 -11.083840 3.407697 0.988647 20.813847 21.156759 3.154750 -70.843346 -10.888796 -1.826082 -0.575103 6.753394 15.614028 -21.644630 -9.394215 1.376912 -20.488083 -16.287493 -1.267814 62.012032 11.545691 6.753794 -11.519975 -3.754509 12.473505 15.924664 8.069854 0.443025 -3.512263 6.223548 4.932527 4.207307 -2.753658 -11.101303 -13.266147 0.645970 -4.559956 4.388386 2.545240 -33.907341 -3.888882 2.324018 14.666754 -13.025007 3.870294 6.773641 
1.050066 46.758327 8.296168 6.620298 -3.097601 16.029867 0.000000 0.000000 0.000000 -19.967913 -2.669150 -4.037916 -10.307293 3.809035 -9.963337 -6.475650 3.651724 1.056900 22.042566 20.658216 6.404548 -67.778557 -15.449323 -8.697785 -0.856656 7.051189 15.664698 -19.831306 -8.972681 1.087681 -20.805397 -15.629824 0.862541 55.077427 14.348238 9.153327 -9.625075 4.684131 12.806127 15.249926 7.908526 0.354995 -1.629469 6.135369 6.582150 4.829004 -2.860384 -11.950644 -14.033144 0.651721 -4.104694 6.150455 2.537539 -33.882191 -3.897581 2.341250 15.525581 -12.008688 4.082369 5.310562 
1.081048 46.690269 8.776104 5.436057 -2.469333 15.972113 0.000000 0.000000 0.000000 -20.201342 -3.554421 -4.305546 -9.437377 4.072989 -10.387586 -1.866401 3.885958 1.135502 23.293140 20.216272 9.649063 -64.082253 -19.602293 -15.970668 -1.139977 7.348392 15.725327 -18.009668 -8.545940 0.817312 -21.149220 -14.990769 2.993979 48.172890 17.418915 11.227524 -7.734307 13.133198 12.877048 14.576860 7.741129 0.262999 0.252983 5.999451 8.227937 5.474683 -2.967954 -12.792443 -14.794518 0.640832 -3.666587 7.893939 2.515621 -33.879551 -3.938065 2.363291 16.402082 -10.937409 4.266747 3.890646 
1.119931 46.651432 9.229243 3.806056 -2.079202 15.557284 0.000000 0.000000 0.000000 -20.732092 -3.574967 -4.071023 -7.536594 4.036194 -10.259583 1.183774 3.983568 1.155665 23.964029 20.286369 9.445943 -61.589222 -21.225117 -20.232454 -1.058002 7.543039 15.692957 -12.655651 -7.229286 0.078465 -21.134796 -15.821053 3.153942 45.732391 18.443371 13.528232 -5.646810 13.390004 13.282056 16.001526 8.094689 0.460944 2.800227 6.069596 6.560455 4.676926 -2.809599 -11.032881 -15.015306 0.645836 -3.775266 9.916705 2.564885 -31.051733 -3.851224 2.295714 13.780840 -10.705631 4.317877 3.611949 
1.158835 46.612644 9.682347 2.165261 -1.706234 15.143511 0.000000 0.000000 0.000000 -21.253855 -3.595506 -3.826143 -5.645746 3.999349 -10.132270 4.234511 4.071398 1.184898 24.627287 20.341454 9.240597 -58.947327 -22.664003 -24.595840 -0.986521 7.734792 15.670394 -7.330636 -5.848893 -0.532842 -21.128204 -16.648371 3.308137 43.318207 19.553661 15.797838 -3.558606 13.647137 13.681628 17.437498 8.446765 0.666394 5.356442 6.206223 4.907942 3.884153 -2.635985 -9.294722 -15.255935 0.650439 -3.873574 11.950675 2.517926 -28.249525 -3.752749 2.227293 11.160268 -10.460754 4.363982 3.351485 
1.233680 46.660595 10.070056 -0.124461 -1.036897 15.148893 0.000000 0.000000 0.000000 -20.577021 -4.066124 -3.152535 -4.121454 4.466395 -10.422601 4.958066 4.081147 1.194640 25.256943 20.308010 9.525424 -55.583488 -26.293243 -26.492039 -0.477786 7.693630 15.664431 -1.431631 -4.256946 -1.053448 -21.315744 -16.786495 3.456615 41.811878 22.220127 18.428743 -6.719094 12.923068 12.989651 16.685383 8.260186 0.552499 9.972653 5.738845 2.667592 0.182964 -2.415304 -6.393484 -14.592571 0.476550 -2.501249 14.556424 2.370943 -26.564463 -3.692594 2.168850 9.455956 -9.442880 4.378555 3.575176 
